<?xml version="1.0" standalone="no"?>
<!DOCTYPE svg PUBLIC "-//W3C//DTD SVG 20010904//EN"
 "http://www.w3.org/TR/2001/REC-SVG-20010904/DTD/svg10.dtd">
<svg version="1.0" xmlns="http://www.w3.org/2000/svg"
 width="700.000000pt" height="700.000000pt" viewBox="0 0 700.000000 700.000000"
 preserveAspectRatio="xMidYMid meet">
<metadata>
Created by potrace 1.14, written by Peter Selinger 2001-2017
</metadata>
<g transform="translate(0.000000,700.000000) scale(0.100000,-0.100000)"
fill="#000000" stroke="none">
<path d="M0 3500 l0 -3500 3500 0 3500 0 0 3500 0 3500 -3500 0 -3500 0 0
-3500z m6887 3386 c6 -5 5 -6767 0 -6773 -6 -5 -6768 -5 -6774 0 -3 3 -6 5601
-3 6684 l0 92 53 3 c83 5 6719 -1 6724 -6z"/>
<path d="M2856 4458 c-3 -7 -4 -467 -3 -1023 l2 -1010 233 -1 c228 -1 232 0
233 20 1 12 2 58 2 104 l0 84 46 -50 c129 -139 253 -194 441 -195 163 0 288
51 400 164 151 151 222 347 223 614 1 374 -189 673 -477 749 -73 18 -234 18
-301 -1 -118 -34 -225 -102 -291 -185 -16 -20 -32 -37 -35 -38 -3 0 -5 174 -5
388 l1 387 -233 3 c-181 2 -233 0 -236 -10z m916 -901 c62 -31 103 -78 135
-159 27 -65 35 -116 37 -233 6 -308 -136 -473 -370 -430 -131 24 -209 119
-238 288 -14 81 -12 230 4 302 27 118 96 210 186 245 71 27 175 22 246 -13z"/>
<path d="M1405 3919 c-22 -4 -62 -10 -90 -14 -27 -3 -57 -7 -65 -9 -8 -1 -37
-7 -65 -11 -27 -5 -52 -10 -55 -10 -3 -1 -22 -5 -42 -9 l-37 -8 -1 -179 c0
-98 1 -179 3 -179 2 0 33 13 69 29 134 61 301 90 488 85 125 -3 190 -18 251
-58 48 -33 70 -73 72 -139 l2 -51 -205 -1 c-229 -2 -299 -8 -415 -35 -253 -59
-378 -197 -389 -427 -10 -234 98 -406 303 -483 81 -31 231 -45 311 -28 19 4
48 9 63 12 92 16 172 61 254 143 35 34 63 67 63 73 0 5 4 10 9 10 6 0 10 -37
9 -82 0 -46 1 -92 1 -104 1 -21 4 -21 236 -21 161 0 235 4 236 11 0 6 0 221 0
478 1 400 -2 479 -16 550 -40 195 -120 308 -269 382 -130 64 -255 85 -501 83
-99 0 -198 -4 -220 -8z m529 -896 c-1 -34 -7 -81 -13 -105 -26 -92 -121 -184
-216 -209 -54 -15 -162 -7 -208 15 -99 48 -130 193 -60 276 57 68 127 85 352
85 l146 0 -1 -62z"/>
<path d="M5369 3926 c-2 -2 -26 -7 -53 -10 -27 -4 -52 -9 -56 -11 -4 -2 -17
-6 -31 -9 -40 -7 -121 -37 -174 -64 -165 -83 -286 -223 -340 -394 -35 -110
-43 -173 -39 -307 3 -122 6 -143 31 -231 124 -430 619 -621 1191 -458 l72 21
1 51 c1 54 1 261 0 310 -1 27 -2 28 -18 14 -31 -27 -141 -78 -206 -95 -82 -21
-237 -24 -302 -6 -175 51 -272 188 -279 395 -7 189 57 332 180 404 142 83 368
72 552 -26 l72 -39 1 52 c0 29 1 114 2 190 l2 138 -65 19 c-78 23 -133 36
-180 45 -37 7 -355 16 -361 11z"/>
</g>
</svg>
